<?xml version="1.0" standalone="no"?>
<!DOCTYPE svg PUBLIC "-//W3C//DTD SVG 20010904//EN"
 "http://www.w3.org/TR/2001/REC-SVG-20010904/DTD/svg10.dtd">
<svg version="1.0" xmlns="http://www.w3.org/2000/svg"
 width="260.000000pt" height="260.000000pt" viewBox="0 0 260.000000 260.000000"
 preserveAspectRatio="xMidYMid meet">
<metadata>
Created by potrace 1.11, written by Peter Selinger 2001-2013
</metadata>
<g transform="translate(0.000000,260.000000) scale(0.100000,-0.100000)"
fill="#000000" stroke="none">
<path d="M900 1280 l0 -630 45 0 45 0 0 313 0 312 306 -312 306 -313 56 0 55
0 -322 325 c-178 179 -321 329 -319 334 2 5 141 143 310 305 l308 296 -56 0
-57 0 -293 -286 -294 -286 0 286 0 286 -45 0 -45 0 0 -630z"/>
</g>
</svg>
